<svg xmlns="http://www.w3.org/2000/svg" viewBox="0 0 215 36">
  <rect width="215" height="36" rx="8" fill="#FF5E5B"/>
  <text x="50" y="24" font-family="Arial, sans-serif" font-size="14" font-weight="bold" fill="white">Support me on Ko-fi</text>
  <g transform="translate(12, 6)">
    <path fill="white" d="M12 2C6.48 2 2 6.48 2 12s4.48 10 10 10 10-4.48 10-10S17.52 2 12 2zm-2 15l-5-5 1.41-1.41L10 14.17l7.59-7.59L19 8l-9 9z"/>
    <path fill="white" d="M12 4c-1.1 0-2 .9-2 2v2c0 1.1.9 2 2 2s2-.9 2-2V6c0-1.1-.9-2-2-2z"/>
    <circle cx="12" cy="14" r="3" fill="#FF5E5B"/>
    <path fill="white" d="M16.5 8c-.83 0-1.5.67-1.5 1.5v5c0 .83.67 1.5 1.5 1.5s1.5-.67 1.5-1.5v-5c0-.83-.67-1.5-1.5-1.5z"/>
  </g>
  <g transform="translate(16, 8)">
    <path fill="white" d="M10 3.5c-3.5 0-6.5 2.5-6.5 5.5 0 4 6.5 9 6.5 9s6.5-5 6.5-9c0-3-3-5.5-6.5-5.5zm0 8c-1.4 0-2.5-1.1-2.5-2.5s1.1-2.5 2.5-2.5 2.5 1.1 2.5 2.5-1.1 2.5-2.5 2.5z"/>
  </g>
</svg>
